<?xml version="1.0" encoding="iso-8859-1"?>
<!-- Generator: Adobe Illustrator 23.1.1, SVG Export Plug-In . SVG Version: 6.00 Build 0)  -->
<svg version="1.1" id="Layer_1_1_" xmlns="http://www.w3.org/2000/svg" xmlns:xlink="http://www.w3.org/1999/xlink" x="0px" y="0px"
	 viewBox="0 0 64 64" style="enable-background:new 0 0 64 64;" xml:space="preserve">
<path d="M11,41c4.962,0,9-4.038,9-9s-4.038-9-9-9s-9,4.038-9,9S6.038,41,11,41z M11,25c3.86,0,7,3.14,7,7s-3.14,7-7,7s-7-3.14-7-7
	S7.14,25,11,25z"/>
<path d="M8.002,29H7.998C7.447,29,7,29.447,7,29.998v0.004C7,30.553,7.447,31,7.998,31h0.004C8.553,31,9,30.553,9,30.002v-0.004
	C9,29.447,8.553,29,8.002,29z"/>
<path d="M14.002,29h-0.004C13.447,29,13,29.447,13,29.998v0.004C13,30.553,13.447,31,13.998,31h0.004C14.553,31,15,30.553,15,30.002
	v-0.004C15,29.447,14.553,29,14.002,29z"/>
<path d="M8.998,36h4.004C13.553,36,14,35.553,14,35.002v-0.004C14,34.447,13.553,34,13.002,34H8.998C8.447,34,8,34.447,8,34.998
	v0.004C8,35.553,8.447,36,8.998,36z"/>
<path d="M11,20c4.962,0,9-4.038,9-9s-4.038-9-9-9s-9,4.038-9,9S6.038,20,11,20z M11,4c3.86,0,7,3.14,7,7s-3.14,7-7,7s-7-3.14-7-7
	S7.14,4,11,4z"/>
<path d="M8.002,8H7.998C7.447,8,7,8.447,7,8.998v0.004C7,9.553,7.447,10,7.998,10h0.004C8.553,10,9,9.553,9,9.002V8.998
	C9,8.447,8.553,8,8.002,8z"/>
<path d="M14.002,8h-0.004C13.447,8,13,8.447,13,8.998v0.004C13,9.553,13.447,10,13.998,10h0.004C14.553,10,15,9.553,15,9.002V8.998
	C15,8.447,14.553,8,14.002,8z"/>
<path d="M11,62c4.962,0,9-4.038,9-9s-4.038-9-9-9s-9,4.038-9,9S6.038,62,11,62z M11,46c3.86,0,7,3.14,7,7s-3.14,7-7,7s-7-3.14-7-7
	S7.14,46,11,46z"/>
<path d="M8.002,50H7.998C7.447,50,7,50.447,7,50.998v0.004C7,51.553,7.447,52,7.998,52h0.004C8.553,52,9,51.553,9,51.002v-0.004
	C9,50.447,8.553,50,8.002,50z"/>
<path d="M14.002,50h-0.004C13.447,50,13,50.447,13,50.998v0.004C13,51.553,13.447,52,13.998,52h0.004C14.553,52,15,51.553,15,51.002
	v-0.004C15,50.447,14.553,50,14.002,50z"/>
<path d="M11,16c1.239,0,2.384-0.574,3.129-1.508c0.422-0.529,0.172-1.325-0.466-1.55l0,0c-0.382-0.135-0.829-0.044-1.077,0.277
	C12.214,13.702,11.632,14,11,14s-1.214-0.298-1.586-0.781c-0.247-0.321-0.695-0.412-1.077-0.277l0,0
	c-0.638,0.225-0.888,1.021-0.466,1.55C8.616,15.426,9.761,16,11,16z"/>
<path d="M8.337,57.059L8.337,57.059c0.382,0.135,0.829,0.044,1.077-0.277C9.786,56.298,10.368,56,11,56s1.214,0.298,1.586,0.781
	c0.247,0.321,0.695,0.412,1.077,0.277h0c0.638-0.225,0.888-1.021,0.466-1.55C13.384,54.574,12.239,54,11,54
	s-2.384,0.574-3.129,1.508C7.449,56.037,7.699,56.833,8.337,57.059z"/>
<path d="M24.333,15.817c0.314,0.22,0.724,0.243,1.06,0.058L28,14.435l2.606,1.44C30.758,15.958,30.924,16,31.09,16
	c0.202,0,0.404-0.062,0.576-0.183c0.313-0.221,0.473-0.601,0.411-0.979l-0.509-3.12l2.147-2.201c0.262-0.268,0.352-0.66,0.232-1.016
	s-0.427-0.615-0.797-0.671l-2.927-0.447l-1.318-2.809C28.741,4.224,28.388,4,28,4s-0.741,0.224-0.905,0.575l-1.318,2.809
	l-2.927,0.447c-0.371,0.057-0.678,0.316-0.797,0.671s-0.029,0.748,0.232,1.016l2.147,2.201l-0.509,3.12
	C23.861,15.217,24.021,15.597,24.333,15.817z M26.606,9.281c0.33-0.051,0.613-0.262,0.754-0.564L28,7.354l0.64,1.363
	c0.142,0.302,0.425,0.513,0.754,0.564l1.531,0.234l-1.141,1.169c-0.222,0.227-0.322,0.546-0.271,0.859l0.259,1.586l-1.288-0.712
	c-0.151-0.083-0.317-0.125-0.484-0.125s-0.333,0.042-0.484,0.125l-1.288,0.712l0.259-1.586c0.051-0.313-0.049-0.632-0.271-0.859
	l-1.141-1.169L26.606,9.281z"/>
<path d="M36.284,9.518l2.147,2.201l-0.509,3.12c-0.062,0.378,0.098,0.758,0.411,0.979c0.314,0.22,0.724,0.243,1.06,0.058L42,14.435
	l2.606,1.44C44.758,15.958,44.924,16,45.09,16c0.202,0,0.404-0.062,0.576-0.183c0.313-0.221,0.473-0.601,0.411-0.979l-0.509-3.12
	l2.147-2.201c0.262-0.268,0.352-0.66,0.232-1.016s-0.427-0.615-0.797-0.671l-2.927-0.447l-1.318-2.809C42.741,4.224,42.388,4,42,4
	s-0.741,0.224-0.905,0.575l-1.318,2.809l-2.927,0.447c-0.371,0.057-0.678,0.316-0.797,0.671S36.022,9.25,36.284,9.518z
	 M40.606,9.281c0.33-0.051,0.613-0.262,0.754-0.564L42,7.354l0.64,1.363c0.142,0.302,0.425,0.513,0.754,0.564l1.531,0.234
	l-1.141,1.169c-0.222,0.227-0.322,0.546-0.271,0.859l0.259,1.586l-1.288-0.712c-0.151-0.083-0.317-0.125-0.484-0.125
	s-0.333,0.042-0.484,0.125l-1.288,0.712l0.259-1.586c0.051-0.313-0.049-0.632-0.271-0.859l-1.141-1.169L40.606,9.281z"/>
<path d="M61.948,29.502c-0.119-0.355-0.427-0.615-0.797-0.671l-2.927-0.447l-1.318-2.809C56.741,25.224,56.388,25,56,25
	s-0.741,0.224-0.905,0.575l-1.318,2.809l-2.927,0.447c-0.371,0.057-0.678,0.316-0.797,0.671s-0.029,0.748,0.232,1.016l2.147,2.201
	l-0.509,3.12c-0.062,0.378,0.098,0.758,0.411,0.979c0.314,0.221,0.724,0.243,1.06,0.058L56,35.435l2.606,1.44
	C58.758,36.958,58.924,37,59.09,37c0.202,0,0.404-0.062,0.576-0.183c0.313-0.221,0.473-0.601,0.411-0.979l-0.509-3.12l2.147-2.201
	C61.978,30.25,62.067,29.858,61.948,29.502z M57.784,31.684c-0.222,0.227-0.322,0.546-0.271,0.859l0.259,1.586l-1.288-0.712
	c-0.151-0.083-0.317-0.125-0.484-0.125s-0.333,0.042-0.484,0.125l-1.288,0.712l0.259-1.586c0.051-0.313-0.049-0.632-0.271-0.859
	l-1.141-1.169l1.531-0.234c0.33-0.051,0.613-0.262,0.754-0.564L56,28.354l0.64,1.363c0.142,0.302,0.425,0.513,0.754,0.564
	l1.531,0.234L57.784,31.684z"/>
<path d="M36.284,30.518l2.147,2.201l-0.509,3.12c-0.062,0.378,0.098,0.758,0.411,0.979c0.314,0.221,0.724,0.243,1.06,0.058
	L42,35.435l2.606,1.44C44.758,36.958,44.924,37,45.09,37c0.202,0,0.404-0.062,0.576-0.183c0.313-0.221,0.473-0.601,0.411-0.979
	l-0.509-3.12l2.147-2.201c0.262-0.268,0.352-0.66,0.232-1.016s-0.427-0.615-0.797-0.671l-2.927-0.447l-1.318-2.809
	C42.741,25.224,42.388,25,42,25s-0.741,0.224-0.905,0.575l-1.318,2.809l-2.927,0.447c-0.371,0.057-0.678,0.316-0.797,0.671
	S36.022,30.25,36.284,30.518z M40.606,30.281c0.33-0.051,0.613-0.262,0.754-0.564L42,28.354l0.64,1.363
	c0.142,0.302,0.425,0.513,0.754,0.564l1.531,0.234l-1.141,1.169c-0.222,0.227-0.322,0.546-0.271,0.859l0.259,1.586l-1.288-0.712
	c-0.151-0.083-0.317-0.125-0.484-0.125s-0.333,0.042-0.484,0.125l-1.288,0.712l0.259-1.586c0.051-0.313-0.049-0.632-0.271-0.859
	l-1.141-1.169L40.606,30.281z"/>
<path d="M61.948,8.502c-0.119-0.355-0.427-0.615-0.797-0.671l-2.927-0.447l-1.318-2.809C56.741,4.224,56.388,4,56,4
	s-0.741,0.224-0.905,0.575l-1.318,2.809l-2.927,0.447c-0.371,0.057-0.678,0.316-0.797,0.671s-0.029,0.748,0.232,1.016l2.147,2.201
	l-0.509,3.12c-0.062,0.378,0.098,0.758,0.411,0.979c0.314,0.22,0.724,0.243,1.06,0.058L56,14.435l2.606,1.44
	C58.758,15.958,58.924,16,59.09,16c0.202,0,0.404-0.062,0.576-0.183c0.313-0.221,0.473-0.601,0.411-0.979l-0.509-3.12l2.147-2.201
	C61.978,9.25,62.067,8.858,61.948,8.502z M57.784,10.684c-0.222,0.227-0.322,0.546-0.271,0.859l0.259,1.586l-1.288-0.712
	c-0.151-0.083-0.317-0.125-0.484-0.125s-0.333,0.042-0.484,0.125l-1.288,0.712l0.259-1.586c0.051-0.313-0.049-0.632-0.271-0.859
	l-1.141-1.169l1.531-0.234c0.33-0.051,0.613-0.262,0.754-0.564L56,7.354l0.64,1.363c0.142,0.302,0.425,0.513,0.754,0.564
	l1.531,0.234L57.784,10.684z"/>
<path d="M61.948,50.502c-0.119-0.355-0.427-0.615-0.797-0.671l-2.927-0.447l-1.318-2.809C56.741,46.224,56.388,46,56,46
	s-0.741,0.224-0.905,0.575l-1.318,2.809l-2.927,0.447c-0.371,0.057-0.678,0.316-0.797,0.671s-0.029,0.748,0.232,1.016l2.147,2.201
	l-0.509,3.12c-0.062,0.378,0.098,0.758,0.411,0.979c0.314,0.22,0.724,0.243,1.06,0.058L56,56.435l2.606,1.44
	C58.758,57.958,58.924,58,59.09,58c0.202,0,0.404-0.062,0.576-0.183c0.313-0.221,0.473-0.601,0.411-0.979l-0.509-3.12l2.147-2.201
	C61.978,51.25,62.067,50.858,61.948,50.502z M57.784,52.684c-0.222,0.227-0.322,0.546-0.271,0.859l0.259,1.586l-1.288-0.712
	c-0.151-0.083-0.317-0.125-0.484-0.125s-0.333,0.042-0.484,0.125l-1.288,0.712l0.259-1.586c0.051-0.313-0.049-0.632-0.271-0.859
	l-1.141-1.169l1.531-0.234c0.33-0.051,0.613-0.262,0.754-0.564L56,49.354l0.64,1.363c0.142,0.302,0.425,0.513,0.754,0.564
	l1.531,0.234L57.784,52.684z"/>
</svg>
